<svg xmlns="http://www.w3.org/2000/svg" xmlns:xlink="http://www.w3.org/1999/xlink" width="500" zoomAndPan="magnify" viewBox="0 0 375 374.999991" height="500" preserveAspectRatio="xMidYMid meet" version="1.0"><defs><g/><clipPath id="3248e54945"><path d="M 132.449219 159 L 172 159 L 172 216 L 132.449219 216 Z M 132.449219 159 " clip-rule="nonzero"/></clipPath><clipPath id="ce598c2f46"><path d="M 203 159 L 242.699219 159 L 242.699219 216 L 203 216 Z M 203 159 " clip-rule="nonzero"/></clipPath><clipPath id="6b89518dff"><path d="M 168 144.757812 L 207 144.757812 L 207 230.257812 L 168 230.257812 Z M 168 144.757812 " clip-rule="nonzero"/></clipPath></defs><g fill="#403029" fill-opacity="1"><g transform="translate(95.071902, 159.225358)"><g><path d="M 0.4375 -1.375 C 0.40625 -1.28125 0.351562 -1.210938 0.28125 -1.171875 C 0.207031 -1.140625 0.125 -1.132812 0.03125 -1.15625 L -9.125 -4.09375 C -9.207031 -4.125 -9.269531 -4.175781 -9.3125 -4.25 C -9.363281 -4.332031 -9.375 -4.421875 -9.34375 -4.515625 L -7.75 -9.5 C -7.632812 -9.84375 -7.457031 -10.144531 -7.21875 -10.40625 C -6.988281 -10.664062 -6.722656 -10.875 -6.421875 -11.03125 C -6.117188 -11.1875 -5.796875 -11.285156 -5.453125 -11.328125 C -5.109375 -11.367188 -4.765625 -11.332031 -4.421875 -11.21875 L 0.3125 -9.703125 C 0.664062 -9.585938 0.972656 -9.410156 1.234375 -9.171875 C 1.492188 -8.941406 1.703125 -8.675781 1.859375 -8.375 C 2.015625 -8.070312 2.109375 -7.742188 2.140625 -7.390625 C 2.179688 -7.046875 2.144531 -6.703125 2.03125 -6.359375 Z M -0.984375 -3.625 L 0.078125 -6.984375 C 0.140625 -7.148438 0.128906 -7.300781 0.046875 -7.4375 C -0.0234375 -7.582031 -0.144531 -7.679688 -0.3125 -7.734375 L -5.046875 -9.25 C -5.203125 -9.300781 -5.347656 -9.289062 -5.484375 -9.21875 C -5.628906 -9.15625 -5.734375 -9.039062 -5.796875 -8.875 L -6.859375 -5.515625 Z M -0.984375 -3.625 "/></g></g></g><g fill="#403029" fill-opacity="1"><g transform="translate(99.692498, 145.74576)"><g><path d="M -3.5625 -12 C -3.476562 -11.957031 -3.421875 -11.894531 -3.390625 -11.8125 C -3.367188 -11.738281 -3.378906 -11.660156 -3.421875 -11.578125 L -5.890625 -6.625 L -4.046875 -5.703125 L -1.8125 -10.1875 C -1.769531 -10.257812 -1.703125 -10.3125 -1.609375 -10.34375 C -1.523438 -10.382812 -1.445312 -10.382812 -1.375 -10.34375 L -0.109375 -9.71875 C -0.0234375 -9.675781 0.0234375 -9.609375 0.046875 -9.515625 C 0.078125 -9.429688 0.0703125 -9.351562 0.03125 -9.28125 L -2.203125 -4.796875 L -0.359375 -3.875 L 2.109375 -8.828125 C 2.148438 -8.910156 2.207031 -8.960938 2.28125 -8.984375 C 2.363281 -9.015625 2.445312 -9.007812 2.53125 -8.96875 L 3.78125 -8.34375 C 3.863281 -8.300781 3.921875 -8.238281 3.953125 -8.15625 C 3.984375 -8.082031 3.976562 -8.003906 3.9375 -7.921875 L 0.703125 -1.40625 C 0.660156 -1.320312 0.597656 -1.265625 0.515625 -1.234375 C 0.429688 -1.210938 0.347656 -1.222656 0.265625 -1.265625 L -8.34375 -5.546875 C -8.425781 -5.585938 -8.476562 -5.644531 -8.5 -5.71875 C -8.53125 -5.800781 -8.523438 -5.882812 -8.484375 -5.96875 L -5.25 -12.484375 C -5.207031 -12.566406 -5.144531 -12.617188 -5.0625 -12.640625 C -4.988281 -12.671875 -4.910156 -12.664062 -4.828125 -12.625 Z M -3.5625 -12 "/></g></g></g><g fill="#403029" fill-opacity="1"><g transform="translate(106.284819, 133.132596)"><g><path d="M -1.515625 -10.34375 C -1.566406 -10.257812 -1.632812 -10.210938 -1.71875 -10.203125 C -1.8125 -10.191406 -1.898438 -10.210938 -1.984375 -10.265625 L -2.0625 -10.328125 C -2.195312 -10.429688 -2.34375 -10.46875 -2.5 -10.4375 C -2.65625 -10.40625 -2.785156 -10.316406 -2.890625 -10.171875 L -4.578125 -7.78125 C -4.660156 -7.644531 -4.6875 -7.5 -4.65625 -7.34375 C -4.632812 -7.1875 -4.554688 -7.054688 -4.421875 -6.953125 L -3.71875 -6.453125 C -3.570312 -6.359375 -3.414062 -6.320312 -3.25 -6.34375 C -3.09375 -6.375 -2.972656 -6.457031 -2.890625 -6.59375 L -1.203125 -8.984375 C -0.984375 -9.285156 -0.722656 -9.523438 -0.421875 -9.703125 C -0.128906 -9.890625 0.175781 -10.007812 0.5 -10.0625 C 0.832031 -10.125 1.171875 -10.117188 1.515625 -10.046875 C 1.859375 -9.984375 2.179688 -9.847656 2.484375 -9.640625 L 3.1875 -9.15625 C 3.488281 -8.9375 3.726562 -8.675781 3.90625 -8.375 C 4.082031 -8.082031 4.203125 -7.769531 4.265625 -7.4375 C 4.328125 -7.101562 4.320312 -6.765625 4.25 -6.421875 C 4.1875 -6.078125 4.046875 -5.753906 3.828125 -5.453125 L 2.140625 -3.0625 C 1.941406 -2.769531 1.691406 -2.535156 1.390625 -2.359375 C 1.097656 -2.179688 0.78125 -2.0625 0.4375 -2 C 0.101562 -1.9375 -0.226562 -1.9375 -0.5625 -2 C -0.90625 -2.070312 -1.226562 -2.21875 -1.53125 -2.4375 L -1.609375 -2.484375 C -1.679688 -2.535156 -1.722656 -2.601562 -1.734375 -2.6875 C -1.753906 -2.78125 -1.738281 -2.863281 -1.6875 -2.9375 L -0.890625 -4.078125 C -0.835938 -4.148438 -0.765625 -4.191406 -0.671875 -4.203125 C -0.585938 -4.222656 -0.507812 -4.207031 -0.4375 -4.15625 L -0.359375 -4.109375 C -0.210938 -4.003906 -0.0625 -3.960938 0.09375 -3.984375 C 0.257812 -4.015625 0.382812 -4.097656 0.46875 -4.234375 L 2.15625 -6.625 C 2.257812 -6.769531 2.296875 -6.921875 2.265625 -7.078125 C 2.234375 -7.242188 2.144531 -7.378906 2 -7.484375 L 1.296875 -7.96875 C 1.160156 -8.070312 1.015625 -8.109375 0.859375 -8.078125 C 0.710938 -8.046875 0.585938 -7.957031 0.484375 -7.8125 L -1.203125 -5.421875 C -1.398438 -5.128906 -1.648438 -4.890625 -1.953125 -4.703125 C -2.253906 -4.523438 -2.570312 -4.40625 -2.90625 -4.34375 C -3.238281 -4.289062 -3.578125 -4.300781 -3.921875 -4.375 C -4.273438 -4.445312 -4.597656 -4.582031 -4.890625 -4.78125 L -5.59375 -5.28125 C -5.894531 -5.5 -6.132812 -5.753906 -6.3125 -6.046875 C -6.5 -6.347656 -6.617188 -6.664062 -6.671875 -7 C -6.734375 -7.332031 -6.726562 -7.671875 -6.65625 -8.015625 C -6.59375 -8.359375 -6.460938 -8.675781 -6.265625 -8.96875 L -4.578125 -11.359375 C -4.359375 -11.660156 -4.097656 -11.898438 -3.796875 -12.078125 C -3.503906 -12.253906 -3.191406 -12.375 -2.859375 -12.4375 C -2.523438 -12.5 -2.1875 -12.492188 -1.84375 -12.421875 C -1.5 -12.359375 -1.175781 -12.21875 -0.875 -12 L -0.796875 -11.9375 C -0.710938 -11.882812 -0.660156 -11.8125 -0.640625 -11.71875 C -0.628906 -11.632812 -0.648438 -11.554688 -0.703125 -11.484375 Z M -1.515625 -10.34375 "/></g></g></g><g fill="#403029" fill-opacity="1"><g transform="translate(114.707133, 121.640763)"><g><path d="M -1.203125 -13.59375 C -1.140625 -13.65625 -1.0625 -13.6875 -0.96875 -13.6875 C -0.875 -13.695312 -0.796875 -13.671875 -0.734375 -13.609375 L 0.296875 -12.625 C 0.359375 -12.5625 0.382812 -12.488281 0.375 -12.40625 C 0.375 -12.320312 0.34375 -12.25 0.28125 -12.1875 L -1.625 -10.1875 L 4.078125 -4.734375 C 4.140625 -4.660156 4.171875 -4.582031 4.171875 -4.5 C 4.179688 -4.414062 4.148438 -4.335938 4.078125 -4.265625 L 3.109375 -3.25 C 3.054688 -3.1875 2.984375 -3.15625 2.890625 -3.15625 C 2.796875 -3.15625 2.71875 -3.191406 2.65625 -3.265625 L -3.046875 -8.71875 L -4.9375 -6.71875 C -5.007812 -6.65625 -5.085938 -6.617188 -5.171875 -6.609375 C -5.253906 -6.597656 -5.328125 -6.625 -5.390625 -6.6875 L -6.421875 -7.671875 C -6.484375 -7.734375 -6.515625 -7.804688 -6.515625 -7.890625 C -6.523438 -7.984375 -6.492188 -8.0625 -6.421875 -8.125 Z M -1.203125 -13.59375 "/></g></g></g><g fill="#403029" fill-opacity="1"><g transform="translate(124.763409, 111.547734)"><g><path d="M 2.03125 -12.328125 C 2.082031 -12.242188 2.097656 -12.160156 2.078125 -12.078125 C 2.066406 -12.003906 2.023438 -11.941406 1.953125 -11.890625 L -0.078125 -10.3125 L 3.6875 -5.421875 L 5.71875 -7 C 5.789062 -7.050781 5.867188 -7.066406 5.953125 -7.046875 C 6.046875 -7.035156 6.125 -6.992188 6.1875 -6.921875 L 7.03125 -5.828125 C 7.09375 -5.753906 7.113281 -5.671875 7.09375 -5.578125 C 7.082031 -5.492188 7.039062 -5.425781 6.96875 -5.375 L 1.296875 -1 C 1.234375 -0.945312 1.15625 -0.925781 1.0625 -0.9375 C 0.976562 -0.945312 0.90625 -0.988281 0.84375 -1.0625 L 0 -2.15625 C -0.0625 -2.226562 -0.0820312 -2.3125 -0.0625 -2.40625 C -0.0507812 -2.5 -0.015625 -2.570312 0.046875 -2.625 L 2.0625 -4.1875 L -1.703125 -9.078125 L -3.71875 -7.515625 C -3.78125 -7.460938 -3.851562 -7.4375 -3.9375 -7.4375 C -4.03125 -7.4375 -4.101562 -7.476562 -4.15625 -7.5625 L -5.015625 -8.671875 C -5.078125 -8.742188 -5.097656 -8.820312 -5.078125 -8.90625 C -5.066406 -9 -5.03125 -9.070312 -4.96875 -9.125 L 0.703125 -13.5 C 0.773438 -13.550781 0.851562 -13.570312 0.9375 -13.5625 C 1.03125 -13.550781 1.109375 -13.507812 1.171875 -13.4375 Z M 2.03125 -12.328125 "/></g></g></g><g fill="#403029" fill-opacity="1"><g transform="translate(136.224462, 103.08357)"><g><path d="M 1.546875 -12.21875 C 1.503906 -12.289062 1.492188 -12.367188 1.515625 -12.453125 C 1.535156 -12.546875 1.585938 -12.613281 1.671875 -12.65625 L 2.90625 -13.34375 C 2.976562 -13.382812 3.054688 -13.390625 3.140625 -13.359375 C 3.234375 -13.335938 3.300781 -13.289062 3.34375 -13.21875 L 8 -4.796875 C 8.039062 -4.722656 8.046875 -4.640625 8.015625 -4.546875 C 7.992188 -4.460938 7.945312 -4.398438 7.875 -4.359375 L 6.640625 -3.671875 C 6.554688 -3.628906 6.472656 -3.617188 6.390625 -3.640625 C 6.304688 -3.671875 6.242188 -3.722656 6.203125 -3.796875 L 4.5 -6.859375 L -0.875 -8.109375 L 2.609375 -1.8125 C 2.648438 -1.738281 2.65625 -1.65625 2.625 -1.5625 C 2.601562 -1.476562 2.550781 -1.414062 2.46875 -1.375 L 1.265625 -0.703125 C 1.179688 -0.648438 1.09375 -0.632812 1 -0.65625 C 0.914062 -0.6875 0.851562 -0.738281 0.8125 -0.8125 L -3.84375 -9.234375 C -3.882812 -9.304688 -3.890625 -9.382812 -3.859375 -9.46875 C -3.835938 -9.5625 -3.785156 -9.632812 -3.703125 -9.6875 L -2.5 -10.359375 C -2.414062 -10.398438 -2.3125 -10.425781 -2.1875 -10.4375 C -2.070312 -10.457031 -1.972656 -10.457031 -1.890625 -10.4375 L 3.171875 -9.28125 Z M 1.546875 -12.21875 "/></g></g></g><g fill="#403029" fill-opacity="1"><g transform="translate(149.104339, 96.339812)"><g/></g></g><g fill="#403029" fill-opacity="1"><g transform="translate(162.276162, 91.775566)"><g><path d="M 5.984375 -8.578125 C 5.890625 -8.554688 5.804688 -8.566406 5.734375 -8.609375 C 5.660156 -8.660156 5.613281 -8.734375 5.59375 -8.828125 L 5.578125 -8.9375 C 5.535156 -9.101562 5.453125 -9.226562 5.328125 -9.3125 C 5.203125 -9.40625 5.050781 -9.429688 4.875 -9.390625 L 2 -8.796875 C 1.84375 -8.765625 1.71875 -8.679688 1.625 -8.546875 C 1.539062 -8.421875 1.519531 -8.273438 1.5625 -8.109375 L 1.734375 -7.25 C 1.765625 -7.082031 1.847656 -6.953125 1.984375 -6.859375 C 2.117188 -6.773438 2.265625 -6.75 2.421875 -6.78125 L 5.296875 -7.375 C 5.648438 -7.445312 5.992188 -7.445312 6.328125 -7.375 C 6.671875 -7.300781 6.984375 -7.171875 7.265625 -6.984375 C 7.546875 -6.796875 7.789062 -6.5625 8 -6.28125 C 8.207031 -6 8.347656 -5.675781 8.421875 -5.3125 L 8.59375 -4.484375 C 8.664062 -4.109375 8.660156 -3.75 8.578125 -3.40625 C 8.503906 -3.070312 8.375 -2.765625 8.1875 -2.484375 C 8.007812 -2.203125 7.773438 -1.957031 7.484375 -1.75 C 7.203125 -1.550781 6.882812 -1.414062 6.53125 -1.34375 L 3.65625 -0.75 C 3.3125 -0.675781 2.96875 -0.675781 2.625 -0.75 C 2.289062 -0.820312 1.976562 -0.953125 1.6875 -1.140625 C 1.40625 -1.328125 1.164062 -1.5625 0.96875 -1.84375 C 0.769531 -2.125 0.632812 -2.453125 0.5625 -2.828125 L 0.53125 -2.90625 C 0.519531 -3 0.535156 -3.082031 0.578125 -3.15625 C 0.617188 -3.238281 0.6875 -3.289062 0.78125 -3.3125 L 2.140625 -3.59375 C 2.234375 -3.601562 2.316406 -3.582031 2.390625 -3.53125 C 2.472656 -3.488281 2.519531 -3.421875 2.53125 -3.328125 L 2.5625 -3.25 C 2.59375 -3.070312 2.675781 -2.9375 2.8125 -2.84375 C 2.945312 -2.75 3.09375 -2.71875 3.25 -2.75 L 6.125 -3.34375 C 6.300781 -3.382812 6.425781 -3.472656 6.5 -3.609375 C 6.582031 -3.742188 6.609375 -3.898438 6.578125 -4.078125 L 6.40625 -4.90625 C 6.363281 -5.070312 6.28125 -5.195312 6.15625 -5.28125 C 6.03125 -5.375 5.878906 -5.398438 5.703125 -5.359375 L 2.828125 -4.765625 C 2.484375 -4.691406 2.140625 -4.691406 1.796875 -4.765625 C 1.460938 -4.835938 1.148438 -4.96875 0.859375 -5.15625 C 0.578125 -5.34375 0.335938 -5.582031 0.140625 -5.875 C -0.0546875 -6.164062 -0.191406 -6.484375 -0.265625 -6.828125 L -0.4375 -7.6875 C -0.519531 -8.039062 -0.523438 -8.390625 -0.453125 -8.734375 C -0.378906 -9.078125 -0.25 -9.390625 -0.0625 -9.671875 C 0.125 -9.953125 0.359375 -10.191406 0.640625 -10.390625 C 0.921875 -10.585938 1.234375 -10.722656 1.578125 -10.796875 L 4.453125 -11.390625 C 4.804688 -11.460938 5.15625 -11.460938 5.5 -11.390625 C 5.84375 -11.328125 6.15625 -11.203125 6.4375 -11.015625 C 6.71875 -10.828125 6.957031 -10.585938 7.15625 -10.296875 C 7.363281 -10.015625 7.507812 -9.695312 7.59375 -9.34375 L 7.609375 -9.234375 C 7.628906 -9.140625 7.613281 -9.054688 7.5625 -8.984375 C 7.507812 -8.921875 7.441406 -8.878906 7.359375 -8.859375 Z M 5.984375 -8.578125 "/></g></g></g><g fill="#403029" fill-opacity="1"><g transform="translate(176.286164, 89.183761)"><g><path d="M 8.453125 -10.71875 C 8.535156 -10.71875 8.609375 -10.6875 8.671875 -10.625 C 8.742188 -10.570312 8.785156 -10.5 8.796875 -10.40625 L 8.875 -9 C 8.875 -8.90625 8.84375 -8.828125 8.78125 -8.765625 C 8.71875 -8.703125 8.644531 -8.671875 8.5625 -8.671875 L 5.796875 -8.53125 L 6.203125 -0.65625 C 6.203125 -0.5625 6.171875 -0.476562 6.109375 -0.40625 C 6.054688 -0.34375 5.984375 -0.3125 5.890625 -0.3125 L 4.5 -0.234375 C 4.414062 -0.234375 4.335938 -0.257812 4.265625 -0.3125 C 4.203125 -0.375 4.171875 -0.453125 4.171875 -0.546875 L 3.765625 -8.421875 L 1.015625 -8.28125 C 0.921875 -8.269531 0.835938 -8.289062 0.765625 -8.34375 C 0.703125 -8.40625 0.671875 -8.484375 0.671875 -8.578125 L 0.59375 -9.984375 C 0.582031 -10.078125 0.609375 -10.15625 0.671875 -10.21875 C 0.734375 -10.28125 0.8125 -10.316406 0.90625 -10.328125 Z M 8.453125 -10.71875 "/></g></g></g><g fill="#403029" fill-opacity="1"><g transform="translate(190.526687, 88.730506)"><g><path d="M 9.15625 0.609375 C 9.1875 0.691406 9.175781 0.757812 9.125 0.8125 C 9.082031 0.875 9.019531 0.898438 8.9375 0.890625 L 7.34375 0.734375 C 7.257812 0.722656 7.175781 0.679688 7.09375 0.609375 C 7.007812 0.546875 6.957031 0.472656 6.9375 0.390625 L 5.578125 -3.5625 L 3.5625 -3.765625 L 3.1875 -0.015625 C 3.175781 0.078125 3.132812 0.148438 3.0625 0.203125 C 3 0.265625 2.921875 0.289062 2.828125 0.28125 L 1.4375 0.140625 C 1.34375 0.128906 1.265625 0.0859375 1.203125 0.015625 C 1.148438 -0.046875 1.128906 -0.125 1.140625 -0.21875 L 2.09375 -9.78125 C 2.101562 -9.875 2.140625 -9.945312 2.203125 -10 C 2.273438 -10.0625 2.359375 -10.085938 2.453125 -10.078125 L 7.65625 -9.5625 C 8.03125 -9.519531 8.363281 -9.410156 8.65625 -9.234375 C 8.957031 -9.066406 9.21875 -8.851562 9.4375 -8.59375 C 9.65625 -8.332031 9.816406 -8.035156 9.921875 -7.703125 C 10.035156 -7.367188 10.070312 -7.023438 10.03125 -6.671875 L 9.953125 -5.796875 C 9.921875 -5.492188 9.84375 -5.210938 9.71875 -4.953125 C 9.601562 -4.691406 9.445312 -4.457031 9.25 -4.25 C 9.050781 -4.039062 8.828125 -3.867188 8.578125 -3.734375 C 8.335938 -3.597656 8.078125 -3.503906 7.796875 -3.453125 Z M 7.25 -5.46875 C 7.425781 -5.445312 7.578125 -5.488281 7.703125 -5.59375 C 7.828125 -5.695312 7.898438 -5.832031 7.921875 -6 L 8 -6.875 C 8.019531 -7.039062 7.976562 -7.179688 7.875 -7.296875 C 7.769531 -7.421875 7.628906 -7.492188 7.453125 -7.515625 L 3.96875 -7.859375 L 3.765625 -5.8125 Z M 7.25 -5.46875 "/></g></g></g><g fill="#403029" fill-opacity="1"><g transform="translate(204.673177, 90.426141)"><g><path d="M 9 -8.28125 C 9.363281 -8.1875 9.679688 -8.03125 9.953125 -7.8125 C 10.234375 -7.59375 10.457031 -7.335938 10.625 -7.046875 C 10.789062 -6.765625 10.898438 -6.453125 10.953125 -6.109375 C 11.015625 -5.765625 11.003906 -5.421875 10.921875 -5.078125 L 9.6875 -0.25 C 9.59375 0.101562 9.4375 0.414062 9.21875 0.6875 C 9.007812 0.957031 8.757812 1.179688 8.46875 1.359375 C 8.1875 1.535156 7.875 1.648438 7.53125 1.703125 C 7.1875 1.765625 6.832031 1.75 6.46875 1.65625 L 3.640625 0.921875 C 3.285156 0.835938 2.972656 0.6875 2.703125 0.46875 C 2.429688 0.257812 2.207031 0.0078125 2.03125 -0.28125 C 1.851562 -0.582031 1.734375 -0.898438 1.671875 -1.234375 C 1.617188 -1.578125 1.640625 -1.925781 1.734375 -2.28125 L 2.96875 -7.109375 C 3.050781 -7.453125 3.195312 -7.757812 3.40625 -8.03125 C 3.625 -8.3125 3.878906 -8.535156 4.171875 -8.703125 C 4.472656 -8.867188 4.789062 -8.984375 5.125 -9.046875 C 5.46875 -9.109375 5.816406 -9.097656 6.171875 -9.015625 Z M 8.9375 -5.59375 C 8.976562 -5.75 8.957031 -5.894531 8.875 -6.03125 C 8.789062 -6.164062 8.664062 -6.253906 8.5 -6.296875 L 5.671875 -7.03125 C 5.503906 -7.070312 5.351562 -7.050781 5.21875 -6.96875 C 5.082031 -6.882812 4.992188 -6.765625 4.953125 -6.609375 L 3.71875 -1.78125 C 3.675781 -1.601562 3.691406 -1.445312 3.765625 -1.3125 C 3.847656 -1.1875 3.972656 -1.101562 4.140625 -1.0625 L 6.96875 -0.328125 C 7.132812 -0.285156 7.285156 -0.300781 7.421875 -0.375 C 7.566406 -0.457031 7.660156 -0.585938 7.703125 -0.765625 Z M 8.9375 -5.59375 "/></g></g></g><g fill="#403029" fill-opacity="1"><g transform="translate(218.40319, 94.232019)"><g><path d="M 10.5625 -6.296875 C 10.601562 -6.390625 10.664062 -6.453125 10.75 -6.484375 C 10.832031 -6.523438 10.914062 -6.523438 11 -6.484375 L 12.296875 -5.9375 C 12.378906 -5.90625 12.4375 -5.847656 12.46875 -5.765625 C 12.507812 -5.679688 12.507812 -5.59375 12.46875 -5.5 L 8.71875 3.34375 C 8.6875 3.425781 8.625 3.484375 8.53125 3.515625 C 8.445312 3.546875 8.363281 3.546875 8.28125 3.515625 L 6.984375 2.96875 C 6.898438 2.925781 6.84375 2.863281 6.8125 2.78125 C 6.78125 2.707031 6.78125 2.628906 6.8125 2.546875 L 8.1875 -0.6875 L 5.84375 -5.6875 L 3.03125 0.9375 C 3 1.019531 2.941406 1.078125 2.859375 1.109375 C 2.773438 1.140625 2.691406 1.140625 2.609375 1.109375 L 1.328125 0.5625 C 1.234375 0.519531 1.171875 0.457031 1.140625 0.375 C 1.109375 0.300781 1.109375 0.222656 1.140625 0.140625 L 4.890625 -8.703125 C 4.929688 -8.796875 4.992188 -8.859375 5.078125 -8.890625 C 5.160156 -8.929688 5.25 -8.929688 5.34375 -8.890625 L 6.625 -8.34375 C 6.707031 -8.3125 6.789062 -8.253906 6.875 -8.171875 C 6.957031 -8.085938 7.015625 -8.003906 7.046875 -7.921875 L 9.265625 -3.21875 Z M 10.5625 -6.296875 "/></g></g></g><g fill="#403029" fill-opacity="1"><g transform="translate(231.403522, 100.065591)"><g><path d="M 10.1875 -2.671875 C 10.269531 -2.816406 10.289062 -2.96875 10.25 -3.125 C 10.21875 -3.289062 10.128906 -3.414062 9.984375 -3.5 L 7.484375 -5.046875 C 7.359375 -5.117188 7.210938 -5.132812 7.046875 -5.09375 C 6.890625 -5.0625 6.769531 -4.972656 6.6875 -4.828125 L 4.078125 -0.609375 C 3.984375 -0.453125 3.957031 -0.296875 4 -0.140625 C 4.039062 0.015625 4.125 0.128906 4.25 0.203125 L 6.75 1.75 C 6.894531 1.832031 7.046875 1.859375 7.203125 1.828125 C 7.359375 1.796875 7.484375 1.703125 7.578125 1.546875 L 8.328125 0.328125 L 6.84375 -0.578125 C 6.78125 -0.617188 6.734375 -0.6875 6.703125 -0.78125 C 6.679688 -0.875 6.695312 -0.960938 6.75 -1.046875 L 7.484375 -2.234375 C 7.523438 -2.304688 7.59375 -2.347656 7.6875 -2.359375 C 7.789062 -2.378906 7.875 -2.367188 7.9375 -2.328125 L 10.890625 -0.515625 C 10.960938 -0.472656 11.003906 -0.40625 11.015625 -0.3125 C 11.035156 -0.226562 11.023438 -0.148438 10.984375 -0.078125 L 9.3125 2.625 C 9.113281 2.945312 8.867188 3.207031 8.578125 3.40625 C 8.296875 3.601562 7.988281 3.738281 7.65625 3.8125 C 7.332031 3.882812 7 3.894531 6.65625 3.84375 C 6.3125 3.800781 5.984375 3.6875 5.671875 3.5 L 3.171875 1.953125 C 2.878906 1.773438 2.632812 1.539062 2.4375 1.25 C 2.238281 0.96875 2.097656 0.660156 2.015625 0.328125 C 1.929688 -0.00390625 1.910156 -0.34375 1.953125 -0.6875 C 2.003906 -1.03125 2.128906 -1.363281 2.328125 -1.6875 L 4.9375 -5.90625 C 5.125 -6.21875 5.359375 -6.472656 5.640625 -6.671875 C 5.929688 -6.867188 6.242188 -7.003906 6.578125 -7.078125 C 6.921875 -7.148438 7.265625 -7.160156 7.609375 -7.109375 C 7.953125 -7.066406 8.269531 -6.957031 8.5625 -6.78125 L 11.0625 -5.234375 C 11.375 -5.046875 11.628906 -4.804688 11.828125 -4.515625 C 12.023438 -4.234375 12.160156 -3.925781 12.234375 -3.59375 C 12.304688 -3.257812 12.316406 -2.921875 12.265625 -2.578125 C 12.222656 -2.234375 12.109375 -1.90625 11.921875 -1.59375 L 11.859375 -1.5 C 11.816406 -1.425781 11.75 -1.378906 11.65625 -1.359375 C 11.570312 -1.347656 11.492188 -1.363281 11.421875 -1.40625 L 10.234375 -2.140625 C 10.148438 -2.191406 10.097656 -2.257812 10.078125 -2.34375 C 10.066406 -2.425781 10.082031 -2.503906 10.125 -2.578125 Z M 10.1875 -2.671875 "/></g></g></g><g fill="#403029" fill-opacity="1"><g transform="translate(103.613, 250.067451)"><g><path d="M 9.03125 -4.71875 C 9.144531 -4.800781 9.238281 -4.789062 9.3125 -4.6875 L 13.484375 0.890625 C 13.566406 1.015625 13.550781 1.117188 13.4375 1.203125 L 12.859375 1.625 C 12.742188 1.71875 12.644531 1.703125 12.5625 1.578125 L 8.9375 -3.28125 L 6.203125 -1.234375 L 9.53125 3.234375 C 9.5625 3.273438 9.566406 3.320312 9.546875 3.375 C 9.535156 3.4375 9.515625 3.484375 9.484375 3.515625 L 8.90625 3.9375 C 8.851562 3.976562 8.796875 3.992188 8.734375 3.984375 C 8.679688 3.972656 8.640625 3.945312 8.609375 3.90625 L 5.28125 -0.5625 L 1.78125 2.046875 C 1.675781 2.128906 1.582031 2.117188 1.5 2.015625 L 1.078125 1.453125 C 1.003906 1.347656 1.019531 1.253906 1.125 1.171875 Z M 9.03125 -4.71875 "/></g></g></g><g fill="#403029" fill-opacity="1"><g transform="translate(113.257761, 262.34123)"><g><path d="M 5.578125 5.234375 L 7.265625 0.75 L 4.984375 -1.5 L 1.921875 1.609375 C 1.828125 1.703125 1.734375 1.703125 1.640625 1.609375 L 1.140625 1.125 C 1.035156 1.019531 1.03125 0.921875 1.125 0.828125 L 8.046875 -6.1875 C 8.140625 -6.289062 8.238281 -6.289062 8.34375 -6.1875 L 12.109375 -2.46875 C 12.316406 -2.269531 12.472656 -2.035156 12.578125 -1.765625 C 12.691406 -1.492188 12.75 -1.210938 12.75 -0.921875 C 12.757812 -0.640625 12.710938 -0.363281 12.609375 -0.09375 C 12.503906 0.164062 12.347656 0.40625 12.140625 0.625 L 11.203125 1.5625 C 10.859375 1.914062 10.441406 2.125 9.953125 2.1875 C 9.472656 2.257812 9.019531 2.175781 8.59375 1.9375 L 8.109375 1.6875 L 6.453125 6.109375 C 6.453125 6.160156 6.425781 6.191406 6.375 6.203125 C 6.332031 6.210938 6.285156 6.195312 6.234375 6.15625 L 5.65625 5.578125 C 5.613281 5.535156 5.585938 5.476562 5.578125 5.40625 C 5.566406 5.332031 5.566406 5.273438 5.578125 5.234375 Z M 5.78125 -2.3125 L 8.90625 0.78125 C 9.101562 0.976562 9.347656 1.078125 9.640625 1.078125 C 9.941406 1.078125 10.191406 0.972656 10.390625 0.765625 L 11.328125 -0.171875 C 11.535156 -0.378906 11.632812 -0.628906 11.625 -0.921875 C 11.613281 -1.210938 11.507812 -1.457031 11.3125 -1.65625 L 8.1875 -4.75 Z M 5.78125 -2.3125 "/></g></g></g><g fill="#403029" fill-opacity="1"><g transform="translate(124.64026, 273.023278)"><g><path d="M 2.875 2.078125 C 2.625 1.898438 2.425781 1.6875 2.28125 1.4375 C 2.144531 1.195312 2.050781 0.941406 2 0.671875 C 1.957031 0.398438 1.96875 0.125 2.03125 -0.15625 C 2.09375 -0.445312 2.210938 -0.710938 2.390625 -0.953125 L 5.859375 -5.71875 C 6.035156 -5.96875 6.25 -6.164062 6.5 -6.3125 C 6.75 -6.457031 7.007812 -6.550781 7.28125 -6.59375 C 7.5625 -6.644531 7.835938 -6.640625 8.109375 -6.578125 C 8.390625 -6.523438 8.65625 -6.410156 8.90625 -6.234375 L 11.609375 -4.265625 C 11.847656 -4.097656 12.039062 -3.890625 12.1875 -3.640625 C 12.332031 -3.390625 12.425781 -3.125 12.46875 -2.84375 C 12.519531 -2.5625 12.515625 -2.28125 12.453125 -2 C 12.390625 -1.71875 12.269531 -1.453125 12.09375 -1.203125 L 8.625 3.5625 C 8.445312 3.800781 8.234375 3.992188 7.984375 4.140625 C 7.734375 4.296875 7.46875 4.390625 7.1875 4.421875 C 6.914062 4.460938 6.640625 4.453125 6.359375 4.390625 C 6.078125 4.328125 5.816406 4.210938 5.578125 4.046875 Z M 8.234375 -5.3125 C 7.992188 -5.476562 7.734375 -5.535156 7.453125 -5.484375 C 7.171875 -5.441406 6.945312 -5.300781 6.78125 -5.0625 L 3.3125 -0.296875 C 3.144531 -0.0664062 3.082031 0.1875 3.125 0.46875 C 3.164062 0.757812 3.304688 0.988281 3.546875 1.15625 L 6.25 3.125 C 6.476562 3.289062 6.734375 3.347656 7.015625 3.296875 C 7.304688 3.253906 7.535156 3.117188 7.703125 2.890625 L 11.171875 -1.875 C 11.335938 -2.113281 11.394531 -2.375 11.34375 -2.65625 C 11.300781 -2.945312 11.164062 -3.175781 10.9375 -3.34375 Z M 8.234375 -5.3125 "/></g></g></g><g fill="#403029" fill-opacity="1"><g transform="translate(137.501097, 281.870081)"><g><path d="M 7.140625 3.453125 L 9.109375 -0.359375 L 6.34375 -6.859375 L 2.3125 0.953125 C 2.25 1.078125 2.160156 1.109375 2.046875 1.046875 L 1.40625 0.71875 C 1.351562 0.695312 1.316406 0.65625 1.296875 0.59375 C 1.273438 0.539062 1.273438 0.488281 1.296875 0.4375 L 5.8125 -8.3125 C 5.84375 -8.375 5.882812 -8.410156 5.9375 -8.421875 C 6 -8.429688 6.054688 -8.425781 6.109375 -8.40625 L 7 -7.9375 C 7.113281 -7.875 7.207031 -7.78125 7.28125 -7.65625 L 9.8125 -1.703125 L 11.65625 -5.296875 C 11.71875 -5.421875 11.8125 -5.453125 11.9375 -5.390625 L 12.578125 -5.0625 C 12.703125 -5 12.734375 -4.90625 12.671875 -4.78125 L 8.15625 3.96875 C 8.09375 4.09375 8 4.125 7.875 4.0625 L 7.234375 3.734375 C 7.109375 3.671875 7.078125 3.578125 7.140625 3.453125 Z M 7.140625 3.453125 "/></g></g></g><g fill="#403029" fill-opacity="1"><g transform="translate(151.547137, 288.680069)"><g><path d="M 4.46875 1.296875 L 7.328125 -7.15625 L 4.4375 -8.125 C 4.289062 -8.175781 4.238281 -8.273438 4.28125 -8.421875 L 4.515625 -9.09375 C 4.554688 -9.226562 4.648438 -9.269531 4.796875 -9.21875 L 11.671875 -6.90625 C 11.816406 -6.851562 11.867188 -6.757812 11.828125 -6.625 L 11.59375 -5.953125 C 11.550781 -5.804688 11.457031 -5.757812 11.3125 -5.8125 L 8.421875 -6.78125 L 5.5625 1.671875 C 5.550781 1.710938 5.515625 1.742188 5.453125 1.765625 C 5.390625 1.796875 5.332031 1.800781 5.28125 1.78125 L 4.609375 1.546875 C 4.472656 1.503906 4.425781 1.421875 4.46875 1.296875 Z M 4.46875 1.296875 "/></g></g></g><g fill="#403029" fill-opacity="1"><g transform="translate(166.458202, 293.29976)"><g><path d="M 1.609375 0.078125 L 3.328125 -9.625 C 3.347656 -9.757812 3.425781 -9.816406 3.5625 -9.796875 L 10.421875 -8.59375 C 10.566406 -8.5625 10.628906 -8.476562 10.609375 -8.34375 L 10.484375 -7.640625 C 10.453125 -7.492188 10.363281 -7.4375 10.21875 -7.46875 L 4.25 -8.515625 L 3.65625 -5.140625 L 8.84375 -4.21875 C 8.882812 -4.21875 8.925781 -4.191406 8.96875 -4.140625 C 9.007812 -4.085938 9.023438 -4.039062 9.015625 -4 L 8.890625 -3.28125 C 8.878906 -3.21875 8.847656 -3.171875 8.796875 -3.140625 C 8.742188 -3.117188 8.695312 -3.109375 8.65625 -3.109375 L 3.46875 -4.03125 L 2.875 -0.65625 L 8.84375 0.390625 C 8.90625 0.410156 8.953125 0.445312 8.984375 0.5 C 9.015625 0.550781 9.023438 0.601562 9.015625 0.65625 L 8.890625 1.359375 C 8.867188 1.492188 8.785156 1.546875 8.640625 1.515625 L 1.78125 0.3125 C 1.644531 0.289062 1.585938 0.210938 1.609375 0.078125 Z M 1.609375 0.078125 "/></g></g></g><g fill="#403029" fill-opacity="1"><g transform="translate(181.879013, 295.617458)"><g><path d="M 7.9375 -0.015625 L 8.046875 -4.3125 L 2.703125 -8.9375 L 2.5 -0.140625 C 2.5 -0.00390625 2.429688 0.0546875 2.296875 0.046875 L 1.578125 0.03125 C 1.523438 0.03125 1.472656 0.0078125 1.421875 -0.03125 C 1.378906 -0.0703125 1.359375 -0.117188 1.359375 -0.171875 L 1.59375 -10.03125 C 1.59375 -10.09375 1.613281 -10.140625 1.65625 -10.171875 C 1.707031 -10.210938 1.757812 -10.234375 1.8125 -10.234375 L 2.8125 -10.203125 C 2.945312 -10.203125 3.070312 -10.160156 3.1875 -10.078125 L 8.078125 -5.828125 L 8.171875 -9.875 C 8.171875 -10.007812 8.238281 -10.078125 8.375 -10.078125 L 9.09375 -10.0625 C 9.238281 -10.050781 9.3125 -9.976562 9.3125 -9.84375 L 9.078125 0.015625 C 9.078125 0.148438 9.003906 0.210938 8.859375 0.203125 L 8.140625 0.1875 C 8.003906 0.1875 7.9375 0.117188 7.9375 -0.015625 Z M 7.9375 -0.015625 "/></g></g></g><g fill="#403029" fill-opacity="1"><g transform="translate(197.488837, 295.590286)"><g><path d="M 1.3125 -0.375 L 0.0625 -10.15625 C 0.0507812 -10.207031 0.0664062 -10.253906 0.109375 -10.296875 C 0.148438 -10.347656 0.195312 -10.378906 0.25 -10.390625 L 5.515625 -11.0625 C 5.804688 -11.101562 6.09375 -11.082031 6.375 -11 C 6.65625 -10.914062 6.90625 -10.785156 7.125 -10.609375 C 7.351562 -10.441406 7.539062 -10.234375 7.6875 -9.984375 C 7.832031 -9.742188 7.925781 -9.472656 7.96875 -9.171875 L 8.71875 -3.328125 C 8.757812 -3.023438 8.738281 -2.734375 8.65625 -2.453125 C 8.570312 -2.171875 8.441406 -1.921875 8.265625 -1.703125 C 8.097656 -1.484375 7.890625 -1.300781 7.640625 -1.15625 C 7.390625 -1.007812 7.117188 -0.914062 6.828125 -0.875 L 1.5625 -0.203125 C 1.507812 -0.191406 1.457031 -0.203125 1.40625 -0.234375 C 1.351562 -0.273438 1.320312 -0.320312 1.3125 -0.375 Z M 2.34375 -1.4375 L 6.6875 -2 C 6.96875 -2.039062 7.195312 -2.175781 7.375 -2.40625 C 7.5625 -2.632812 7.632812 -2.894531 7.59375 -3.1875 L 6.84375 -9.03125 C 6.8125 -9.320312 6.675781 -9.550781 6.4375 -9.71875 C 6.207031 -9.894531 5.953125 -9.960938 5.671875 -9.921875 L 1.328125 -9.359375 Z M 2.34375 -1.4375 "/></g></g></g><g fill="#403029" fill-opacity="1"><g transform="translate(212.916338, 293.213568)"><g/></g></g><g fill="#403029" fill-opacity="1"><g transform="translate(227.796362, 288.547256)"><g><path d="M 1.15625 -0.75 L -2.953125 -9.703125 C -2.972656 -9.753906 -2.972656 -9.804688 -2.953125 -9.859375 C -2.929688 -9.921875 -2.894531 -9.960938 -2.84375 -9.984375 L 1.984375 -12.203125 C 2.242188 -12.316406 2.519531 -12.378906 2.8125 -12.390625 C 3.101562 -12.398438 3.378906 -12.359375 3.640625 -12.265625 C 3.910156 -12.171875 4.148438 -12.023438 4.359375 -11.828125 C 4.578125 -11.628906 4.753906 -11.394531 4.890625 -11.125 L 7.34375 -5.765625 C 7.46875 -5.492188 7.53125 -5.210938 7.53125 -4.921875 C 7.539062 -4.628906 7.492188 -4.351562 7.390625 -4.09375 C 7.296875 -3.832031 7.148438 -3.59375 6.953125 -3.375 C 6.753906 -3.15625 6.523438 -2.988281 6.265625 -2.875 L 1.4375 -0.65625 C 1.382812 -0.632812 1.328125 -0.628906 1.265625 -0.640625 C 1.210938 -0.660156 1.175781 -0.695312 1.15625 -0.75 Z M 1.796875 -2.078125 L 5.796875 -3.90625 C 6.046875 -4.019531 6.222656 -4.210938 6.328125 -4.484375 C 6.429688 -4.765625 6.425781 -5.035156 6.3125 -5.296875 L 3.859375 -10.65625 C 3.734375 -10.914062 3.53125 -11.09375 3.25 -11.1875 C 2.976562 -11.289062 2.71875 -11.285156 2.46875 -11.171875 L -1.53125 -9.34375 Z M 1.796875 -2.078125 "/></g></g></g><g fill="#403029" fill-opacity="1"><g transform="translate(241.817664, 281.687399)"><g><path d="M 1.234375 -1.0625 L -4.171875 -9.296875 C -4.253906 -9.410156 -4.238281 -9.503906 -4.125 -9.578125 L 1.703125 -13.390625 C 1.828125 -13.472656 1.929688 -13.457031 2.015625 -13.34375 L 2.40625 -12.75 C 2.488281 -12.625 2.46875 -12.519531 2.34375 -12.4375 L -2.734375 -9.109375 L -0.859375 -6.25 L 3.546875 -9.140625 C 3.585938 -9.171875 3.640625 -9.179688 3.703125 -9.171875 C 3.765625 -9.160156 3.804688 -9.132812 3.828125 -9.09375 L 4.21875 -8.5 C 4.25 -8.445312 4.257812 -8.390625 4.25 -8.328125 C 4.238281 -8.265625 4.210938 -8.21875 4.171875 -8.1875 L -0.234375 -5.296875 L 1.640625 -2.4375 L 6.71875 -5.765625 C 6.769531 -5.804688 6.828125 -5.816406 6.890625 -5.796875 C 6.953125 -5.785156 7 -5.753906 7.03125 -5.703125 L 7.421875 -5.109375 C 7.492188 -4.992188 7.46875 -4.894531 7.34375 -4.8125 L 1.515625 -1 C 1.398438 -0.925781 1.304688 -0.945312 1.234375 -1.0625 Z M 1.234375 -1.0625 "/></g></g></g><g fill="#403029" fill-opacity="1"><g transform="translate(254.635019, 272.805289)"><g><path d="M 2.5 -2.5 L -2.53125 -4.984375 C -2.582031 -5.015625 -2.640625 -5.050781 -2.703125 -5.09375 C -2.773438 -5.132812 -2.828125 -5.175781 -2.859375 -5.21875 L -5.703125 -8.390625 C -5.742188 -8.441406 -5.757812 -8.492188 -5.75 -8.546875 C -5.75 -8.609375 -5.726562 -8.65625 -5.6875 -8.6875 L -5.15625 -9.171875 C -5.050781 -9.265625 -4.953125 -9.257812 -4.859375 -9.15625 L -2.15625 -6.140625 C -2.113281 -6.097656 -2.0625 -6.050781 -2 -6 C -1.9375 -5.957031 -1.878906 -5.921875 -1.828125 -5.890625 L 2.484375 -3.765625 L 3.75 -4.890625 L 2.09375 -9.421875 C 2.082031 -9.472656 2.054688 -9.53125 2.015625 -9.59375 C 1.972656 -9.664062 1.929688 -9.722656 1.890625 -9.765625 L -0.8125 -12.78125 C -0.90625 -12.882812 -0.898438 -12.984375 -0.796875 -13.078125 L -0.265625 -13.5625 C -0.160156 -13.65625 -0.0625 -13.648438 0.03125 -13.546875 L 2.875 -10.375 C 2.90625 -10.332031 2.941406 -10.273438 2.984375 -10.203125 C 3.023438 -10.140625 3.054688 -10.082031 3.078125 -10.03125 L 5.03125 -4.765625 C 5.039062 -4.722656 5.035156 -4.664062 5.015625 -4.59375 C 4.992188 -4.519531 4.960938 -4.460938 4.921875 -4.421875 L 2.84375 -2.546875 C 2.800781 -2.515625 2.742188 -2.492188 2.671875 -2.484375 C 2.609375 -2.472656 2.550781 -2.476562 2.5 -2.5 Z M 2.5 -2.5 "/></g></g></g><g fill="#403029" fill-opacity="1"><g transform="translate(265.970829, 262.096601)"><g><path d="M 0.859375 -1.375 L -6.765625 -7.640625 C -6.867188 -7.722656 -6.875 -7.816406 -6.78125 -7.921875 L -2.359375 -13.296875 C -2.265625 -13.410156 -2.164062 -13.425781 -2.0625 -13.34375 L -1.5 -12.890625 C -1.382812 -12.796875 -1.375 -12.691406 -1.46875 -12.578125 L -5.328125 -7.890625 L -2.6875 -5.71875 L 0.65625 -9.796875 C 0.6875 -9.828125 0.734375 -9.84375 0.796875 -9.84375 C 0.867188 -9.851562 0.921875 -9.847656 0.953125 -9.828125 L 1.515625 -9.359375 C 1.554688 -9.316406 1.578125 -9.265625 1.578125 -9.203125 C 1.578125 -9.140625 1.5625 -9.09375 1.53125 -9.0625 L -1.8125 -4.984375 L 0.84375 -2.8125 L 4.703125 -7.5 C 4.742188 -7.550781 4.796875 -7.578125 4.859375 -7.578125 C 4.921875 -7.585938 4.96875 -7.570312 5 -7.53125 L 5.5625 -7.078125 C 5.664062 -6.992188 5.671875 -6.894531 5.578125 -6.78125 L 1.15625 -1.40625 C 1.0625 -1.300781 0.960938 -1.289062 0.859375 -1.375 Z M 0.859375 -1.375 "/></g></g></g><g fill="#403029" fill-opacity="1"><g transform="translate(275.569631, 249.807019)"><g><path d="M -7.828125 -6.9375 L -7.453125 -7.5625 C -7.378906 -7.6875 -7.28125 -7.710938 -7.15625 -7.640625 L 0.5 -3.078125 L 3.484375 -8.09375 C 3.523438 -8.144531 3.578125 -8.175781 3.640625 -8.1875 C 3.703125 -8.207031 3.753906 -8.203125 3.796875 -8.171875 L 4.421875 -7.8125 C 4.535156 -7.738281 4.550781 -7.640625 4.46875 -7.515625 L 1 -1.6875 C 0.976562 -1.65625 0.9375 -1.628906 0.875 -1.609375 C 0.820312 -1.585938 0.773438 -1.59375 0.734375 -1.625 L -7.734375 -6.65625 C -7.796875 -6.6875 -7.832031 -6.734375 -7.84375 -6.796875 C -7.851562 -6.859375 -7.847656 -6.90625 -7.828125 -6.9375 Z M -7.828125 -6.9375 "/></g></g></g><g fill="#403029" fill-opacity="1"><g transform="translate(283.215645, 236.198015)"><g><path d="M 1.328125 -3.28125 C 1.222656 -3 1.066406 -2.757812 0.859375 -2.5625 C 0.660156 -2.363281 0.429688 -2.207031 0.171875 -2.09375 C -0.0859375 -1.988281 -0.363281 -1.9375 -0.65625 -1.9375 C -0.945312 -1.9375 -1.234375 -1.992188 -1.515625 -2.109375 L -6.96875 -4.328125 C -7.25 -4.429688 -7.488281 -4.585938 -7.6875 -4.796875 C -7.894531 -5.003906 -8.050781 -5.234375 -8.15625 -5.484375 C -8.257812 -5.742188 -8.316406 -6.015625 -8.328125 -6.296875 C -8.335938 -6.578125 -8.289062 -6.859375 -8.1875 -7.140625 L -6.921875 -10.25 C -6.816406 -10.519531 -6.65625 -10.753906 -6.4375 -10.953125 C -6.226562 -11.160156 -5.992188 -11.320312 -5.734375 -11.4375 C -5.484375 -11.550781 -5.210938 -11.609375 -4.921875 -11.609375 C -4.628906 -11.609375 -4.34375 -11.554688 -4.0625 -11.453125 L 1.390625 -9.234375 C 1.671875 -9.117188 1.910156 -8.957031 2.109375 -8.75 C 2.316406 -8.539062 2.472656 -8.304688 2.578125 -8.046875 C 2.691406 -7.785156 2.75 -7.507812 2.75 -7.21875 C 2.75 -6.9375 2.695312 -6.660156 2.59375 -6.390625 Z M -7.125 -6.71875 C -7.226562 -6.445312 -7.222656 -6.175781 -7.109375 -5.90625 C -7.003906 -5.644531 -6.816406 -5.460938 -6.546875 -5.359375 L -1.09375 -3.140625 C -0.820312 -3.023438 -0.550781 -3.019531 -0.28125 -3.125 C -0.0195312 -3.238281 0.160156 -3.429688 0.265625 -3.703125 L 1.53125 -6.8125 C 1.632812 -7.070312 1.628906 -7.335938 1.515625 -7.609375 C 1.410156 -7.878906 1.222656 -8.070312 0.953125 -8.1875 L -4.5 -10.40625 C -4.769531 -10.507812 -5.035156 -10.503906 -5.296875 -10.390625 C -5.566406 -10.273438 -5.753906 -10.085938 -5.859375 -9.828125 Z M -7.125 -6.71875 "/></g></g></g><g fill="#403029" fill-opacity="1"><g transform="translate(288.725855, 221.593048)"><g><path d="M 0.109375 -1.375 L -9.46875 -3.671875 C -9.53125 -3.679688 -9.570312 -3.710938 -9.59375 -3.765625 C -9.625 -3.816406 -9.632812 -3.867188 -9.625 -3.921875 L -8.375 -9.09375 C -8.3125 -9.375 -8.191406 -9.628906 -8.015625 -9.859375 C -7.847656 -10.097656 -7.644531 -10.289062 -7.40625 -10.4375 C -7.164062 -10.59375 -6.898438 -10.691406 -6.609375 -10.734375 C -6.328125 -10.785156 -6.039062 -10.773438 -5.75 -10.703125 L -4.453125 -10.390625 C -4.160156 -10.328125 -3.894531 -10.207031 -3.65625 -10.03125 C -3.425781 -9.863281 -3.238281 -9.65625 -3.09375 -9.40625 C -2.945312 -9.164062 -2.847656 -8.898438 -2.796875 -8.609375 C -2.753906 -8.328125 -2.765625 -8.046875 -2.828125 -7.765625 L -3.859375 -3.5 L 0.375 -2.484375 C 0.507812 -2.453125 0.5625 -2.367188 0.53125 -2.234375 L 0.359375 -1.53125 C 0.347656 -1.476562 0.316406 -1.4375 0.265625 -1.40625 C 0.210938 -1.375 0.160156 -1.363281 0.109375 -1.375 Z M -4.96875 -3.765625 L -3.9375 -8.03125 C -3.875 -8.300781 -3.914062 -8.5625 -4.0625 -8.8125 C -4.21875 -9.0625 -4.4375 -9.21875 -4.71875 -9.28125 L -6.015625 -9.59375 C -6.296875 -9.664062 -6.554688 -9.625 -6.796875 -9.46875 C -7.046875 -9.3125 -7.203125 -9.097656 -7.265625 -8.828125 L -8.296875 -4.5625 Z M -4.96875 -3.765625 "/></g></g></g><g fill="#403029" fill-opacity="1"><g transform="translate(291.970678, 206.322614)"><g><path d="M -0.0625 -1.625 L -9.890625 -2.453125 C -10.023438 -2.460938 -10.085938 -2.535156 -10.078125 -2.671875 L -9.5 -9.609375 C -9.488281 -9.753906 -9.414062 -9.820312 -9.28125 -9.8125 L -8.5625 -9.75 C -8.414062 -9.738281 -8.347656 -9.660156 -8.359375 -9.515625 L -8.859375 -3.46875 L -5.453125 -3.171875 L -5.015625 -8.421875 C -5.015625 -8.460938 -4.988281 -8.503906 -4.9375 -8.546875 C -4.882812 -8.597656 -4.835938 -8.617188 -4.796875 -8.609375 L -4.078125 -8.5625 C -4.015625 -8.550781 -3.960938 -8.519531 -3.921875 -8.46875 C -3.890625 -8.414062 -3.875 -8.367188 -3.875 -8.328125 L -4.3125 -3.078125 L -0.90625 -2.796875 L -0.40625 -8.84375 C -0.40625 -8.90625 -0.378906 -8.953125 -0.328125 -8.984375 C -0.273438 -9.023438 -0.222656 -9.046875 -0.171875 -9.046875 L 0.546875 -8.984375 C 0.679688 -8.972656 0.742188 -8.894531 0.734375 -8.75 L 0.15625 -1.8125 C 0.144531 -1.675781 0.0703125 -1.613281 -0.0625 -1.625 Z M -0.0625 -1.625 "/></g></g></g><g fill="#403029" fill-opacity="1"><g transform="translate(292.888396, 190.757635)"><g><path d="M -0.703125 -7.625 L -4.9375 -5.375 L -4.71875 -2.1875 L -0.375 -2.484375 C -0.238281 -2.492188 -0.164062 -2.429688 -0.15625 -2.296875 L -0.109375 -1.59375 C -0.0976562 -1.445312 -0.160156 -1.367188 -0.296875 -1.359375 L -10.140625 -0.703125 C -10.273438 -0.691406 -10.347656 -0.757812 -10.359375 -0.90625 L -10.71875 -6.1875 C -10.738281 -6.476562 -10.695312 -6.757812 -10.59375 -7.03125 C -10.5 -7.300781 -10.359375 -7.546875 -10.171875 -7.765625 C -9.992188 -7.984375 -9.773438 -8.15625 -9.515625 -8.28125 C -9.253906 -8.414062 -8.972656 -8.492188 -8.671875 -8.515625 L -7.34375 -8.609375 C -6.851562 -8.640625 -6.40625 -8.519531 -6 -8.25 C -5.59375 -7.976562 -5.304688 -7.613281 -5.140625 -7.15625 L -4.953125 -6.65625 L -0.78125 -8.859375 C -0.738281 -8.890625 -0.695312 -8.894531 -0.65625 -8.875 C -0.613281 -8.851562 -0.59375 -8.8125 -0.59375 -8.75 L -0.53125 -7.9375 C -0.53125 -7.875 -0.546875 -7.804688 -0.578125 -7.734375 C -0.617188 -7.671875 -0.660156 -7.632812 -0.703125 -7.625 Z M -5.859375 -2.109375 L -6.15625 -6.484375 C -6.164062 -6.765625 -6.28125 -7.003906 -6.5 -7.203125 C -6.71875 -7.398438 -6.972656 -7.488281 -7.265625 -7.46875 L -8.59375 -7.375 C -8.882812 -7.351562 -9.125 -7.234375 -9.3125 -7.015625 C -9.5 -6.796875 -9.585938 -6.546875 -9.578125 -6.265625 L -9.28125 -1.890625 Z M -5.859375 -2.109375 "/></g></g></g><path fill="#403029" d="M 167.183594 214.449219 C 166.574219 214.449219 165.972656 214.246094 165.496094 213.867188 L 134.703125 189.640625 C 134.042969 189.117188 133.664062 188.339844 133.664062 187.496094 C 133.664062 186.65625 134.042969 185.875 134.703125 185.351562 L 165.496094 161.128906 C 165.972656 160.75 166.574219 160.542969 167.183594 160.542969 C 168.023438 160.542969 168.808594 160.921875 169.324219 161.585938 C 169.773438 162.15625 169.976562 162.871094 169.890625 163.59375 C 169.804688 164.316406 169.441406 164.960938 168.867188 165.414062 L 140.804688 187.496094 L 168.867188 209.578125 C 169.441406 210.03125 169.804688 210.679688 169.890625 211.398438 C 169.976562 212.125 169.773438 212.832031 169.324219 213.410156 C 168.808594 214.070312 168.023438 214.449219 167.183594 214.449219 " fill-opacity="1" fill-rule="nonzero"/><g clip-path="url(#3248e54945)"><path fill="#fffbf8" d="M 167.183594 159.382812 C 166.3125 159.382812 165.464844 159.675781 164.78125 160.214844 L 133.984375 184.441406 C 133.039062 185.1875 132.5 186.300781 132.5 187.496094 C 132.5 188.695312 133.042969 189.8125 133.984375 190.554688 L 164.78125 214.78125 C 165.457031 215.316406 166.3125 215.613281 167.183594 215.613281 C 168.386719 215.613281 169.5 215.070312 170.238281 214.125 C 170.882812 213.3125 171.167969 212.296875 171.046875 211.265625 C 170.921875 210.234375 170.40625 209.308594 169.589844 208.667969 L 142.683594 187.496094 L 169.589844 166.328125 C 170.40625 165.683594 170.921875 164.761719 171.046875 163.730469 C 171.167969 162.699219 170.882812 161.683594 170.238281 160.863281 C 169.5 159.921875 168.378906 159.382812 167.183594 159.382812 Z M 167.183594 161.707031 C 167.644531 161.707031 168.105469 161.910156 168.414062 162.300781 C 168.953125 162.984375 168.832031 163.96875 168.152344 164.503906 L 138.921875 187.496094 L 168.152344 210.492188 C 168.832031 211.027344 168.953125 212.011719 168.414062 212.691406 C 168.105469 213.085938 167.644531 213.289062 167.183594 213.289062 C 166.84375 213.289062 166.503906 213.183594 166.214844 212.953125 L 135.421875 188.730469 C 135.046875 188.429688 134.824219 187.976562 134.824219 187.496094 C 134.824219 187.015625 135.046875 186.5625 135.421875 186.265625 L 166.214844 162.039062 C 166.5 161.8125 166.84375 161.707031 167.183594 161.707031 " fill-opacity="1" fill-rule="nonzero"/></g><path fill="#403029" d="M 207.8125 214.449219 C 206.96875 214.449219 206.191406 214.070312 205.664062 213.410156 C 204.734375 212.230469 204.941406 210.511719 206.125 209.578125 L 234.191406 187.496094 L 206.125 165.414062 C 204.941406 164.484375 204.734375 162.765625 205.664062 161.585938 C 206.191406 160.921875 206.96875 160.542969 207.8125 160.542969 C 208.417969 160.542969 209.019531 160.75 209.496094 161.128906 L 240.292969 185.351562 C 240.953125 185.875 241.328125 186.65625 241.328125 187.496094 C 241.328125 188.339844 240.953125 189.117188 240.289062 189.640625 L 209.496094 213.867188 C 209.019531 214.246094 208.417969 214.449219 207.8125 214.449219 " fill-opacity="1" fill-rule="nonzero"/><g clip-path="url(#ce598c2f46)"><path fill="#fffbf8" d="M 207.8125 159.382812 C 206.613281 159.382812 205.496094 159.921875 204.753906 160.863281 C 203.425781 162.550781 203.71875 165 205.40625 166.328125 L 232.3125 187.496094 L 205.40625 208.667969 C 203.71875 209.992188 203.425781 212.445312 204.753906 214.125 C 205.496094 215.070312 206.613281 215.613281 207.8125 215.613281 C 208.679688 215.613281 209.53125 215.316406 210.210938 214.78125 L 241.007812 190.554688 C 241.949219 189.8125 242.488281 188.695312 242.488281 187.496094 C 242.488281 186.300781 241.949219 185.1875 241.011719 184.441406 L 210.21875 160.214844 C 209.535156 159.675781 208.679688 159.382812 207.8125 159.382812 Z M 207.8125 161.707031 C 208.148438 161.707031 208.492188 161.8125 208.777344 162.039062 L 239.570312 186.265625 C 239.949219 186.5625 240.167969 187.015625 240.167969 187.496094 C 240.167969 187.976562 239.949219 188.429688 239.570312 188.730469 L 208.777344 212.953125 C 208.492188 213.183594 208.148438 213.289062 207.8125 213.289062 C 207.347656 213.289062 206.886719 213.085938 206.578125 212.691406 C 206.046875 212.011719 206.160156 211.027344 206.839844 210.492188 L 236.070312 187.496094 L 206.839844 164.503906 C 206.160156 163.96875 206.046875 162.984375 206.578125 162.300781 C 206.886719 161.910156 207.351562 161.707031 207.8125 161.707031 " fill-opacity="1" fill-rule="nonzero"/></g><path fill="#403029" d="M 172.195312 229.070312 C 171.855469 229.070312 171.523438 229.003906 171.210938 228.882812 C 170.53125 228.621094 169.992188 228.109375 169.699219 227.445312 C 169.402344 226.773438 169.386719 226.035156 169.648438 225.359375 L 199.722656 147.667969 C 200.128906 146.625 201.148438 145.925781 202.265625 145.925781 C 202.601562 145.925781 202.9375 145.992188 203.253906 146.109375 C 204.652344 146.65625 205.355469 148.238281 204.808594 149.640625 L 174.738281 227.328125 C 174.335938 228.367188 173.308594 229.070312 172.195312 229.070312 " fill-opacity="1" fill-rule="nonzero"/><g clip-path="url(#6b89518dff)"><path fill="#fffbf8" d="M 202.265625 144.765625 C 200.671875 144.765625 199.210938 145.765625 198.640625 147.25 L 168.566406 224.933594 C 168.195312 225.90625 168.21875 226.960938 168.636719 227.914062 C 169.058594 228.859375 169.820312 229.59375 170.792969 229.964844 C 171.242188 230.144531 171.710938 230.230469 172.195312 230.230469 C 173.789062 230.230469 175.246094 229.234375 175.824219 227.746094 L 205.890625 150.058594 C 206.667969 148.058594 205.667969 145.800781 203.667969 145.027344 C 203.222656 144.851562 202.746094 144.765625 202.265625 144.765625 Z M 202.265625 147.085938 C 202.453125 147.085938 202.644531 147.125 202.832031 147.195312 C 203.640625 147.503906 204.039062 148.410156 203.726562 149.21875 L 173.652344 226.90625 C 173.417969 227.527344 172.820312 227.910156 172.195312 227.910156 C 172.003906 227.910156 171.8125 227.875 171.628906 227.800781 C 170.820312 227.492188 170.417969 226.578125 170.734375 225.777344 L 200.804688 148.089844 C 201.046875 147.46875 201.636719 147.085938 202.265625 147.085938 " fill-opacity="1" fill-rule="nonzero"/></g></svg>